<?xml version="1.0" encoding="UTF-8" standalone="no"?>
<!-- Created with Inkscape (http://www.inkscape.org/) -->

<svg
   width="1300"
   height="136.763"
   id="svg3509"
   version="1.1"
   inkscape:version="1.2 (dc2aedaf03, 2022-05-15)"
   sodipodi:docname="Fabrication Toolkit Logo.svg"
   inkscape:export-filename="/home/fabrizio/Desktop/kicad_logo2.png"
   inkscape:export-xdpi="130.52866"
   inkscape:export-ydpi="130.52866"
   xmlns:inkscape="http://www.inkscape.org/namespaces/inkscape"
   xmlns:sodipodi="http://sodipodi.sourceforge.net/DTD/sodipodi-0.dtd"
   xmlns="http://www.w3.org/2000/svg"
   xmlns:svg="http://www.w3.org/2000/svg"
   xmlns:rdf="http://www.w3.org/1999/02/22-rdf-syntax-ns#"
   xmlns:cc="http://creativecommons.org/ns#"
   xmlns:dc="http://purl.org/dc/elements/1.1/">
  <defs
     id="defs3511">
    <rect
       x="979.28571"
       y="180.33443"
       width="132.14286"
       height="193.57143"
       id="rect2617" />
    <rect
       x="590.71429"
       y="-28.951285"
       width="167.14286"
       height="187.85714"
       id="rect2611" />
    <rect
       x="176.42857"
       y="10.334429"
       width="1260.7143"
       height="265.71428"
       id="rect227" />
  </defs>
  <sodipodi:namedview
     id="base"
     pagecolor="#ffffff"
     bordercolor="#666666"
     borderopacity="1.0"
     inkscape:pageopacity="0.0"
     inkscape:pageshadow="2"
     inkscape:zoom="0.98994949"
     inkscape:cx="687.91388"
     inkscape:cy="158.08887"
     inkscape:document-units="px"
     inkscape:current-layer="text225"
     showgrid="true"
     inkscape:window-width="1920"
     inkscape:window-height="1002"
     inkscape:window-x="-8"
     inkscape:window-y="-8"
     inkscape:window-maximized="1"
     inkscape:snap-grids="false"
     showguides="true"
     inkscape:guide-bbox="true"
     inkscape:snap-to-guides="false"
     fit-margin-top="0"
     fit-margin-left="0"
     fit-margin-right="0"
     fit-margin-bottom="0"
     inkscape:showpageshadow="2"
     inkscape:pagecheckerboard="0"
     inkscape:deskcolor="#d1d1d1" />
  <metadata
     id="metadata3514">
    <rdf:RDF>
      <cc:Work
         rdf:about="">
        <dc:format>image/svg+xml</dc:format>
        <dc:type
           rdf:resource="http://purl.org/dc/dcmitype/StillImage" />
      </cc:Work>
    </rdf:RDF>
  </metadata>
  <g
     inkscape:label="Layer 1"
     inkscape:groupmode="layer"
     id="layer1"
     transform="translate(-40.547253,-883.62329)">
    <path
       inkscape:connector-curvature="0"
       style="fill:#314cb0;fill-opacity:1;fill-rule:nonzero;stroke:#1d2d68;stroke-width:4.85049;stroke-miterlimit:4;stroke-opacity:1"
       d="m 1056.9425,902.1018 h 114.392 c 0.5127,0 0.9255,0.43179 0.9255,0.96814 v 109.79556 c 0,0.5364 -0.4128,0.9682 -0.9255,0.9682 h -114.392 c -0.5128,0 -0.9255,-0.4318 -0.9255,-0.9682 V 903.06994 c 0,-0.53635 0.4127,-0.96814 0.9255,-0.96814 z"
       id="rect3438-4-1-6-9-8-4" />
    <path
       inkscape:connector-curvature="0"
       id="path3008"
       style="font-style:normal;font-weight:normal;font-size:120.794px;line-height:122%;font-family:Sans;letter-spacing:0px;word-spacing:0px;fill:#ffffff;fill-opacity:1;stroke:none"
       d="m 1085.5333,948.38598 16.9276,-21.41018 c 3.4602,-4.36453 5.1903,-7.62815 5.1904,-9.79088 -10e-5,-0.78633 -0.098,-1.41546 -0.2949,-1.8874 h 29.5495 c -2.2413,1.25835 -5.0528,3.91251 -8.4343,7.96246 -0.9044,1.06175 -2.4969,3.00812 -4.7774,5.83914 l -22.177,27.60321 26.4826,36.45038 c 1.6121,2.20197 3.6567,4.67918 6.134,7.43169 0.6684,0.7078 1.6318,1.5532 2.8901,2.5362 h -30.3163 c 0.2358,-0.9044 0.3538,-1.7105 0.3539,-2.4183 -10e-5,-2.16264 -1.4943,-5.28864 -4.4826,-9.37801 l -17.0456,-23.23859 v 23.5335 c 0,5.4656 1.101,9.2994 3.303,11.5014 h -27.7212 c 1.5335,-1.5335 2.5165,-3.28335 2.9491,-5.24939 0.2359,-1.10098 0.3538,-3.16532 0.3538,-6.19303 v -64.9383 c 0,-3.02763 -0.1179,-5.09197 -0.3538,-6.19303 -0.4326,-1.96596 -1.4156,-3.71573 -2.9491,-5.24933 h 27.7212 c -2.202,2.20205 -3.303,6.01617 -3.303,11.44236 v 21.6461" />
    <path
       inkscape:connector-curvature="0"
       id="path3010"
       style="font-style:normal;font-weight:normal;font-size:120.794px;line-height:122%;font-family:Sans;letter-spacing:0px;word-spacing:0px;fill:#ffffff;fill-opacity:1;stroke:none"
       d="m 1164.7451,938.5951 v 54.14474 c -1e-4,2.83111 0.079,4.67918 0.2359,5.54423 0.3145,1.76943 1.1403,3.38163 2.4772,4.83653 h -25.9517 c 1.3369,-1.4549 2.1626,-3.0671 2.4772,-4.83653 0.1573,-0.86505 0.2359,-2.71312 0.2359,-5.54423 v -43.88201 c 0,-2.83104 -0.079,-4.65946 -0.2359,-5.48526 -0.3146,-1.73005 -1.1207,-3.32254 -2.4182,-4.77747 h 23.1796 m -10.2628,-30.84717 c 3.2636,9e-5 6.0358,1.16006 8.3164,3.47989 2.3199,2.2807 3.4798,5.05281 3.4799,8.31635 -1e-4,3.34235 -1.1404,6.15378 -3.4209,8.43431 -2.2414,2.24136 -5.0331,3.362 -8.3754,3.36193 -3.2636,7e-5 -6.0554,-1.14023 -8.3753,-3.42091 -2.2806,-2.31985 -3.4209,-5.11162 -3.4209,-8.37533 0,-3.34218 1.1206,-6.13396 3.3619,-8.37533 2.2806,-2.28051 5.0921,-3.42082 8.4343,-3.42091" />
    <path
       inkscape:connector-curvature="0"
       style="fill:#314cb0;fill-opacity:1;fill-rule:nonzero;stroke:none"
       d="m 1140.5539,906.77745 h 28.3151 v 27.03082 h -28.3151 z"
       id="rect4352-5-1" />
    <path
       inkscape:connector-curvature="0"
       style="fill:#ff7700;fill-opacity:1;fill-rule:nonzero;stroke:none"
       d="m 1166.4321,902.13073 c 0,6.60244 -5.3681,11.95472 -11.9901,11.95472 -6.622,0 -11.9902,-5.35228 -11.9902,-11.95472 0,-6.60244 5.3682,-11.9548 11.9902,-11.9548 6.622,0 11.9901,5.35236 11.9901,11.9548 z"
       id="path3552-6-3-7" />
    <g
       aria-label="Fabrication Tool    t"
       transform="translate(-30.187122,883.52127)"
       id="text225"
       style="font-size:120px;line-height:1.25;white-space:pre;shape-inside:url(#rect227);fill:#1b2b63">
      <path
         d="m 234.61133,51.200341 h -29.64844 v 20.625 h 27.24609 V 87.176904 H 204.96289 V 119.81362 H 186.03711 V 35.790185 h 48.57422 z"
         style="font-weight:bold;font-family:'Segoe UI';-inkscape-font-specification:'Segoe UI Bold'"
         id="path2671" />
      <path
         d="m 292.9707,119.81362 h -17.51953 v -8.61328 h -0.23437 q -6.03516,10.07813 -17.8711,10.07813 -8.73047,0 -13.76953,-4.92188 -4.98047,-4.98047 -4.98047,-13.24219 0,-17.460934 20.6836,-20.156246 l 16.28906,-2.167969 q 0,-9.84375 -10.66406,-9.84375 -10.72266,0 -20.39063,6.386719 V 63.387841 q 3.86719,-1.992187 10.54688,-3.515625 6.73828,-1.523437 12.24609,-1.523437 25.66406,0 25.66406,25.605468 z M 275.56836,95.438622 v -4.042968 l -10.89844,1.40625 q -9.02344,1.171875 -9.02344,8.144526 0,3.16407 2.16797,5.21485 2.22657,1.99219 5.97657,1.99219 5.21484,0 8.49609,-3.57422 3.28125,-3.63282 3.28125,-9.140628 z"
         style="font-weight:bold;font-family:'Segoe UI';-inkscape-font-specification:'Segoe UI Bold'"
         id="path2673" />
      <path
         d="m 326.36914,112.84097 h -0.23437 v 6.97265 H 307.61914 V 30.985497 h 18.51563 V 68.83706 h 0.23437 q 6.85547,-10.488281 19.51172,-10.488281 11.60156,0 17.87109,7.96875 6.26953,7.96875 6.26953,21.796875 0,14.999996 -7.32421,24.082026 -7.32422,9.08204 -19.57032,9.08204 -11.07422,0 -16.75781,-8.4375 z M 325.8418,87.528466 v 6.152344 q 0,5.800781 3.33984,9.60937 3.33984,3.8086 8.55469,3.8086 6.32812,0 9.78515,-4.86328 3.51563,-4.921878 3.51563,-13.886721 0,-7.441407 -3.22266,-11.601563 -3.16406,-4.21875 -9.08203,-4.21875 -5.5664,0 -9.25781,4.160156 -3.63281,4.160157 -3.63281,10.839844 z"
         style="font-weight:bold;font-family:'Segoe UI';-inkscape-font-specification:'Segoe UI Bold'"
         id="path2675" />
      <path
         d="m 421.17383,76.512841 q -3.33985,-1.816406 -7.79297,-1.816406 -6.03516,0 -9.43359,4.453125 -3.39844,4.394531 -3.39844,12.011719 V 119.81362 H 382.0332 V 59.813622 h 18.51563 v 11.132813 h 0.23437 q 4.39453,-12.1875 15.82032,-12.1875 2.92968,0 4.57031,0.703125 z"
         style="font-weight:bold;font-family:'Segoe UI';-inkscape-font-specification:'Segoe UI Bold'"
         id="path2677" />
      <path
         d="m 439.63086,50.321435 q -4.6875,0 -7.67578,-2.753906 -2.98828,-2.8125 -2.98828,-6.855469 0,-4.160156 2.98828,-6.796875 2.98828,-2.636719 7.67578,-2.636719 4.74609,0 7.67578,2.636719 2.98828,2.636719 2.98828,6.796875 0,4.21875 -2.98828,6.914062 -2.92969,2.695313 -7.67578,2.695313 z m 9.14062,69.492185 H 430.25586 V 59.813622 h 18.51562 z"
         style="font-weight:bold;font-family:'Segoe UI';-inkscape-font-specification:'Segoe UI Bold'"
         id="path2679" />
      <path
         d="m 509.82617,117.64565 q -6.26953,3.63282 -18.10547,3.63282 -13.82812,0 -22.38281,-8.37891 -8.55469,-8.37891 -8.55469,-21.621094 0,-15.292969 9.14063,-24.082031 9.19922,-8.847656 24.55078,-8.847656 10.60547,0 15.35156,2.8125 v 15.703125 q -5.80078,-4.335938 -12.94922,-4.335938 -7.96875,0 -12.65625,4.6875 -4.6289,4.628906 -4.6289,12.832031 0,7.96875 4.45312,12.539063 4.45313,4.51172 12.2461,4.51172 6.91406,0 13.53515,-4.33594 z"
         style="font-weight:bold;font-family:'Segoe UI';-inkscape-font-specification:'Segoe UI Bold'"
         id="path2681" />
      <path
         d="m 571.87695,119.81362 h -17.51953 v -8.61328 h -0.23437 q -6.03516,10.07813 -17.8711,10.07813 -8.73047,0 -13.76953,-4.92188 -4.98047,-4.98047 -4.98047,-13.24219 0,-17.460934 20.6836,-20.156246 l 16.28906,-2.167969 q 0,-9.84375 -10.66406,-9.84375 -10.72266,0 -20.39063,6.386719 V 63.387841 q 3.86719,-1.992187 10.54688,-3.515625 6.73828,-1.523437 12.24609,-1.523437 25.66406,0 25.66406,25.605468 z M 554.47461,95.438622 v -4.042968 l -10.89844,1.40625 q -9.02344,1.171875 -9.02344,8.144526 0,3.16407 2.16797,5.21485 2.22657,1.99219 5.97657,1.99219 5.21484,0 8.49609,-3.57422 3.28125,-3.63282 3.28125,-9.140628 z"
         id="path2683" />
      <path
         d="m 622.79492,119.1105 q -4.10156,2.16797 -12.36328,2.16797 -19.57031,0 -19.57031,-20.33204 V 73.465966 h -9.72656 V 59.813622 h 9.72656 V 46.864404 l 18.45703,-5.273438 v 18.222656 h 13.47656 v 13.652344 h -13.47656 v 24.257813 q 0,9.375001 7.44141,9.375001 2.92968,0 6.03515,-1.69922 z"
         id="path2685" />
      <path
         d="m 642.59961,50.321435 q -4.6875,0 -7.67578,-2.753906 -2.98828,-2.8125 -2.98828,-6.855469 0,-4.160156 2.98828,-6.796875 2.98828,-2.636719 7.67578,-2.636719 4.74609,0 7.67578,2.636719 2.98828,2.636719 2.98828,6.796875 0,4.21875 -2.98828,6.914062 -2.92969,2.695313 -7.67578,2.695313 z m 9.14062,69.492185 H 633.22461 V 59.813622 h 18.51562 z"
         id="path2687" />
      <path
         d="m 695.91992,121.27847 q -15,0 -23.61328,-8.37891 -8.55469,-8.4375 -8.55469,-22.851563 0,-14.882812 8.90625,-23.261718 8.90625,-8.4375 24.08203,-8.4375 14.94141,0 23.4375,8.4375 8.4961,8.378906 8.4961,22.207031 0,14.94141 -8.78906,23.61328 -8.73047,8.67188 -23.96485,8.67188 z m 0.46875,-48.750004 q -6.5625,0 -10.19531,4.511719 -3.63281,4.511719 -3.63281,12.773437 0,17.285158 13.94531,17.285158 13.30078,0 13.30078,-17.753908 0,-16.816406 -13.41797,-16.816406 z"
         id="path2689" />
      <path
         d="M 798.63477,119.81362 H 780.17773 V 86.473779 q 0,-13.945313 -9.96093,-13.945313 -4.80469,0 -7.91016,3.691406 -3.10547,3.691407 -3.10547,9.375 V 119.81362 H 740.68555 V 59.813622 h 18.51562 v 9.492188 h 0.23438 q 6.62109,-10.957031 19.27734,-10.957031 19.92188,0 19.92188,24.726562 z"
         id="path2691" />
      <path
         d="M 907.20898,51.200341 H 883.24414 V 119.81362 H 864.25977 V 51.200341 H 840.41211 V 35.790185 h 66.79687 z"
         id="path2693" />
      <path
         d="m 934.51367,121.27847 q -15,0 -23.61328,-8.37891 -8.55469,-8.4375 -8.55469,-22.851563 0,-14.882812 8.90625,-23.261718 8.90625,-8.4375 24.08203,-8.4375 14.94141,0 23.4375,8.4375 8.4961,8.378906 8.4961,22.207031 0,14.94141 -8.78906,23.61328 -8.73047,8.67188 -23.96485,8.67188 z m 0.46875,-48.750004 q -6.5625,0 -10.19531,4.511719 -3.63281,4.511719 -3.63281,12.773437 0,17.285158 13.94531,17.285158 13.30078,0 13.30078,-17.753908 0,-16.816406 -13.41797,-16.816406 z"
         id="path2695" />
      <path
         d="m 1007.873,121.27847 q -14.99995,0 -23.61323,-8.37891 -8.55469,-8.4375 -8.55469,-22.851563 0,-14.882812 8.90625,-23.261718 8.90625,-8.4375 24.08207,-8.4375 14.9414,0 23.4375,8.4375 8.4961,8.378906 8.4961,22.207031 0,14.94141 -8.7891,23.61328 -8.7305,8.67188 -23.9649,8.67188 z m 0.4688,-48.750004 q -6.5625,0 -10.19532,4.511719 -3.63281,4.511719 -3.63281,12.773437 0,17.285158 13.94533,17.285158 13.3008,0 13.3008,-17.753908 0,-16.816406 -13.418,-16.816406 z"
         id="path2697" />
      <path
         d="m 1071.1543,119.81362 h -18.5156 V 30.985497 h 18.5156 z"
         id="path2699" />
      <path
         d="m 1255.4316,119.1105 q -4.1015,2.16797 -12.3632,2.16797 -19.5704,0 -19.5704,-20.33204 V 73.465966 h -9.7265 V 59.813622 h 9.7265 V 46.864404 l 18.4571,-5.273438 v 18.222656 h 13.4765 v 13.652344 h -13.4765 v 24.257813 q 0,9.375001 7.4414,9.375001 2.9297,0 6.0351,-1.69922 z"
         id="path2701" />
    </g>
    <text
       xml:space="preserve"
       transform="translate(40.547253,883.62329)"
       id="text2609"
       style="fill:black;fill-opacity:1;line-height:1.25;stroke:none;font-family:sans-serif;font-style:normal;font-weight:normal;font-size:40px;white-space:pre;shape-inside:url(#rect2611)" />
    <text
       xml:space="preserve"
       transform="translate(40.547253,883.62329)"
       id="text2615"
       style="fill:black;fill-opacity:1;line-height:1.25;stroke:none;font-family:sans-serif;font-style:normal;font-weight:normal;font-size:40px;white-space:pre;shape-inside:url(#rect2617)" />
  </g>
</svg>
